<svg xmlns="http://www.w3.org/2000/svg" xmlns:xlink="http://www.w3.org/1999/xlink" width="1076" zoomAndPan="magnify" viewBox="0 0 806.88 910.499973" height="1214" preserveAspectRatio="xMidYMid meet" version="1.0"><defs><g/><clipPath id="992cffd73d"><path d="M 51.898438 69.675781 L 801.488281 69.675781 L 801.488281 819.265625 L 51.898438 819.265625 Z M 51.898438 69.675781 " clip-rule="nonzero"/></clipPath><clipPath id="59b2f724f4"><path d="M 426.695312 69.675781 C 219.703125 69.675781 51.898438 237.476562 51.898438 444.472656 C 51.898438 651.464844 219.703125 819.265625 426.695312 819.265625 C 633.6875 819.265625 801.488281 651.464844 801.488281 444.472656 C 801.488281 237.476562 633.6875 69.675781 426.695312 69.675781 Z M 426.695312 69.675781 " clip-rule="nonzero"/></clipPath></defs><g clip-path="url(#992cffd73d)"><g clip-path="url(#59b2f724f4)"><path fill="#ffffff" d="M 51.898438 69.675781 L 801.488281 69.675781 L 801.488281 819.265625 L 51.898438 819.265625 Z M 51.898438 69.675781 " fill-opacity="1" fill-rule="nonzero"/></g></g><g fill="#131315" fill-opacity="1"><g transform="translate(178.753756, 428.680742)"><g><path d="M 59.609375 0 L 111.71875 0 L 144.640625 -100.828125 L 177.546875 0 L 229.65625 0 L 287.96875 -181.4375 L 233.03125 -181.4375 L 220.328125 -141 L 201.65625 -82.9375 L 169.515625 -181.4375 L 119.75 -181.4375 L 106.265625 -141 L 87.875 -84.5 L 69.46875 -141 L 56.765625 -181.4375 L 1.296875 -181.4375 Z M 59.609375 0 "/></g></g></g><g fill="#131315" fill-opacity="1"><g transform="translate(201.806606, 636.288661)"><g><path d="M 19.765625 0 L 73.21875 0 L 73.21875 -94.859375 L 109.28125 -44.359375 L 144.296875 -44.359375 L 180.09375 -94.59375 L 180.09375 0 L 233.53125 0 L 233.53125 -187.046875 L 189.71875 -187.046875 L 126.65625 -98.0625 L 63.859375 -187.046875 L 19.765625 -187.046875 Z M 19.765625 0 "/></g></g></g><g fill="#131315" fill-opacity="1"><g transform="translate(656.577887, 454.953834)"><g><path d="M 4.015625 -107.15625 C 4.015625 -158.71875 -27.25 -197.734375 -74.8125 -205.75 L -74.8125 -150.96875 C -57.1875 -144.296875 -45.953125 -128.53125 -45.953125 -108.21875 C -45.953125 -82.03125 -65.46875 -63.859375 -93.515625 -63.859375 C -121.84375 -63.859375 -141.078125 -82.296875 -141.078125 -108.75 C -141.078125 -128.25 -130.125 -144.5625 -113.296875 -150.171875 L -113.296875 -204.671875 C -160.59375 -195.0625 -191.046875 -156.578125 -191.046875 -106.609375 C -191.046875 -48.890625 -151.234375 -9.078125 -93.515625 -9.078125 C -35.8125 -9.078125 4.015625 -48.890625 4.015625 -107.15625 Z M 4.015625 -107.15625 "/></g></g></g><g fill="#131315" fill-opacity="1"><g transform="translate(653.766943, 663.120382)"><g><path d="M 0 -19.765625 L 0 -73.21875 L -95.390625 -73.21875 L 0 -144.296875 L 0 -188.109375 L -187.046875 -188.109375 L -187.046875 -134.9375 L -92.1875 -134.9375 L -187.046875 -63.859375 L -187.046875 -19.765625 Z M 0 -19.765625 "/></g></g></g></svg>