<svg xmlns="http://www.w3.org/2000/svg" xmlns:xlink="http://www.w3.org/1999/xlink" width="538" zoomAndPan="magnify" viewBox="0 0 403.5 455.249995" height="607" preserveAspectRatio="xMidYMid meet" version="1.0"><defs><g/></defs><g fill="#212121" fill-opacity="1"><g transform="translate(89.280479, 214.105372)"><g><path d="M 29.78125 0 L 55.796875 0 L 72.234375 -50.359375 L 88.671875 0 L 114.703125 0 L 143.828125 -90.625 L 116.375 -90.625 L 110.03125 -70.421875 L 100.71875 -41.421875 L 84.65625 -90.625 L 59.8125 -90.625 L 53.078125 -70.421875 L 43.890625 -42.203125 L 34.6875 -70.421875 L 28.34375 -90.625 L 0.640625 -90.625 Z M 29.78125 0 "/></g></g></g><g fill="#212121" fill-opacity="1"><g transform="translate(100.794266, 317.795523)"><g><path d="M 9.875 0 L 36.5625 0 L 36.5625 -47.375 L 54.578125 -22.15625 L 72.0625 -22.15625 L 89.953125 -47.25 L 89.953125 0 L 116.640625 0 L 116.640625 -93.421875 L 94.75 -93.421875 L 63.25 -48.984375 L 31.890625 -93.421875 L 9.875 -93.421875 Z M 9.875 0 "/></g></g></g><g fill="#212121" fill-opacity="1"><g transform="translate(327.930599, 227.227524)"><g><path d="M 2 -53.515625 C 2 -79.265625 -13.609375 -98.75 -37.359375 -102.765625 L -37.359375 -75.40625 C -28.5625 -72.0625 -22.953125 -64.1875 -22.953125 -54.046875 C -22.953125 -40.96875 -32.703125 -31.890625 -46.703125 -31.890625 C -60.859375 -31.890625 -70.46875 -41.109375 -70.46875 -54.3125 C -70.46875 -64.0625 -64.984375 -72.203125 -56.578125 -75 L -56.578125 -102.21875 C -80.203125 -97.421875 -95.421875 -78.203125 -95.421875 -53.25 C -95.421875 -24.421875 -75.53125 -4.53125 -46.703125 -4.53125 C -17.875 -4.53125 2 -24.421875 2 -53.515625 Z M 2 -53.515625 "/></g></g></g><g fill="#212121" fill-opacity="1"><g transform="translate(326.526663, 331.196659)"><g><path d="M 0 -9.875 L 0 -36.5625 L -47.640625 -36.5625 L 0 -72.0625 L 0 -93.953125 L -93.421875 -93.953125 L -93.421875 -67.390625 L -46.046875 -67.390625 L -93.421875 -31.890625 L -93.421875 -9.875 Z M 0 -9.875 "/></g></g></g></svg>