<svg xmlns="http://www.w3.org/2000/svg" xmlns:xlink="http://www.w3.org/1999/xlink" width="554" zoomAndPan="magnify" viewBox="0 0 415.5 467.249995" height="623" preserveAspectRatio="xMidYMid meet" version="1.0"><defs><g/></defs><g fill="#a6a6a6" fill-opacity="0.302"><g transform="translate(100.728706, 237.355264)"><g><path d="M 29.78125 0 L 55.796875 0 L 72.25 -50.359375 L 88.6875 0 L 114.703125 0 L 143.84375 -90.625 L 116.390625 -90.625 L 110.046875 -70.4375 L 100.734375 -41.4375 L 84.671875 -90.625 L 59.8125 -90.625 L 53.078125 -70.4375 L 43.890625 -42.203125 L 34.703125 -70.4375 L 28.359375 -90.625 L 0.640625 -90.625 Z M 29.78125 0 "/></g></g></g><g fill="#a6a6a6" fill-opacity="0.502"><g transform="translate(95.007023, 231.633585)"><g><path d="M 29.78125 0 L 55.796875 0 L 72.25 -50.359375 L 88.6875 0 L 114.703125 0 L 143.84375 -90.625 L 116.390625 -90.625 L 110.046875 -70.4375 L 100.734375 -41.4375 L 84.671875 -90.625 L 59.8125 -90.625 L 53.078125 -70.4375 L 43.890625 -42.203125 L 34.703125 -70.4375 L 28.359375 -90.625 L 0.640625 -90.625 Z M 29.78125 0 "/></g></g></g><g fill="#ffffff" fill-opacity="1"><g transform="translate(89.285343, 225.911905)"><g><path d="M 29.78125 0 L 55.796875 0 L 72.25 -50.359375 L 88.6875 0 L 114.703125 0 L 143.84375 -90.625 L 116.390625 -90.625 L 110.046875 -70.4375 L 100.734375 -41.4375 L 84.671875 -90.625 L 59.8125 -90.625 L 53.078125 -70.4375 L 43.890625 -42.203125 L 34.703125 -70.4375 L 28.359375 -90.625 L 0.640625 -90.625 Z M 29.78125 0 "/></g></g></g><g fill="#a6a6a6" fill-opacity="0.302"><g transform="translate(112.597103, 341.40394)"><g><path d="M 9.875 0 L 36.578125 0 L 36.578125 -47.375 L 54.59375 -22.15625 L 72.078125 -22.15625 L 89.953125 -47.25 L 89.953125 0 L 116.65625 0 L 116.65625 -93.421875 L 94.765625 -93.421875 L 63.265625 -48.984375 L 31.90625 -93.421875 L 9.875 -93.421875 Z M 9.875 0 "/></g></g></g><g fill="#a6a6a6" fill-opacity="0.502"><g transform="translate(106.698361, 335.505194)"><g><path d="M 9.875 0 L 36.578125 0 L 36.578125 -47.375 L 54.59375 -22.15625 L 72.078125 -22.15625 L 89.953125 -47.25 L 89.953125 0 L 116.65625 0 L 116.65625 -93.421875 L 94.765625 -93.421875 L 63.265625 -48.984375 L 31.90625 -93.421875 L 9.875 -93.421875 Z M 9.875 0 "/></g></g></g><g fill="#ffffff" fill-opacity="1"><g transform="translate(100.799617, 329.606451)"><g><path d="M 9.875 0 L 36.578125 0 L 36.578125 -47.375 L 54.59375 -22.15625 L 72.078125 -22.15625 L 89.953125 -47.25 L 89.953125 0 L 116.65625 0 L 116.65625 -93.421875 L 94.765625 -93.421875 L 63.265625 -48.984375 L 31.90625 -93.421875 L 9.875 -93.421875 Z M 9.875 0 "/></g></g></g><g fill="#a6a6a6" fill-opacity="0.302"><g transform="translate(339.743034, 227.237123)"><g><path d="M 2 -53.515625 C 2 -79.28125 -13.609375 -98.765625 -37.375 -102.765625 L -37.375 -75.40625 C -28.5625 -72.078125 -22.953125 -64.203125 -22.953125 -54.0625 C -22.953125 -40.96875 -32.703125 -31.90625 -46.71875 -31.90625 C -60.859375 -31.90625 -70.46875 -41.109375 -70.46875 -54.328125 C -70.46875 -64.0625 -65 -72.203125 -56.59375 -75.015625 L -56.59375 -102.234375 C -80.21875 -97.4375 -95.4375 -78.21875 -95.4375 -53.25 C -95.4375 -24.421875 -75.546875 -4.53125 -46.71875 -4.53125 C -17.890625 -4.53125 2 -24.421875 2 -53.515625 Z M 2 -53.515625 "/></g></g></g><g fill="#a6a6a6" fill-opacity="0.502"><g transform="translate(333.84429, 233.135866)"><g><path d="M 2 -53.515625 C 2 -79.28125 -13.609375 -98.765625 -37.375 -102.765625 L -37.375 -75.40625 C -28.5625 -72.078125 -22.953125 -64.203125 -22.953125 -54.0625 C -22.953125 -40.96875 -32.703125 -31.90625 -46.71875 -31.90625 C -60.859375 -31.90625 -70.46875 -41.109375 -70.46875 -54.328125 C -70.46875 -64.0625 -65 -72.203125 -56.59375 -75.015625 L -56.59375 -102.234375 C -80.21875 -97.4375 -95.4375 -78.21875 -95.4375 -53.25 C -95.4375 -24.421875 -75.546875 -4.53125 -46.71875 -4.53125 C -17.890625 -4.53125 2 -24.421875 2 -53.515625 Z M 2 -53.515625 "/></g></g></g><g fill="#ffffff" fill-opacity="1"><g transform="translate(327.945544, 239.034609)"><g><path d="M 2 -53.515625 C 2 -79.28125 -13.609375 -98.765625 -37.375 -102.765625 L -37.375 -75.40625 C -28.5625 -72.078125 -22.953125 -64.203125 -22.953125 -54.0625 C -22.953125 -40.96875 -32.703125 -31.90625 -46.71875 -31.90625 C -60.859375 -31.90625 -70.46875 -41.109375 -70.46875 -54.328125 C -70.46875 -64.0625 -65 -72.203125 -56.59375 -75.015625 L -56.59375 -102.234375 C -80.21875 -97.4375 -95.4375 -78.21875 -95.4375 -53.25 C -95.4375 -24.421875 -75.546875 -4.53125 -46.71875 -4.53125 C -17.890625 -4.53125 2 -24.421875 2 -53.515625 Z M 2 -53.515625 "/></g></g></g><g fill="#a6a6a6" fill-opacity="0.302"><g transform="translate(338.339038, 331.210697)"><g><path d="M 0 -9.875 L 0 -36.578125 L -47.640625 -36.578125 L 0 -72.078125 L 0 -93.96875 L -93.421875 -93.96875 L -93.421875 -67.40625 L -46.046875 -67.40625 L -93.421875 -31.90625 L -93.421875 -9.875 Z M 0 -9.875 "/></g></g></g><g fill="#a6a6a6" fill-opacity="0.502"><g transform="translate(332.440293, 337.109428)"><g><path d="M 0 -9.875 L 0 -36.578125 L -47.640625 -36.578125 L 0 -72.078125 L 0 -93.96875 L -93.421875 -93.96875 L -93.421875 -67.40625 L -46.046875 -67.40625 L -93.421875 -31.90625 L -93.421875 -9.875 Z M 0 -9.875 "/></g></g></g><g fill="#ffffff" fill-opacity="1"><g transform="translate(326.541549, 343.008184)"><g><path d="M 0 -9.875 L 0 -36.578125 L -47.640625 -36.578125 L 0 -72.078125 L 0 -93.96875 L -93.421875 -93.96875 L -93.421875 -67.40625 L -46.046875 -67.40625 L -93.421875 -31.90625 L -93.421875 -9.875 Z M 0 -9.875 "/></g></g></g></svg>